Coordinates
version=1
nRows=9
nColumns=36
inDegrees=yes

Units are S.I. units (second, meters, Newtons, ...)
Angles are in degrees.

endheader
time	pelvis_tilt	pelvis_list	pelvis_rotation	pelvis_tx	pelvis_ty	pelvis_tz	hip_flexion_r	hip_adduction_r	hip_rotation_r	knee_angle_r	ankle_angle_r	subtalar_angle_r	hip_flexion_l	hip_adduction_l	hip_rotation_l	knee_angle_l	ankle_angle_l	subtalar_angle_l	lumbar_extension	lumbar_bending	lumbar_rotation	arm_flex_r	arm_add_r	arm_rot_r	elbow_flex_r	pro_sup_r	wrist_flex_r	wrist_dev_r	arm_flex_l	arm_add_l	arm_rot_l	elbow_flex_l	pro_sup_l	wrist_flex_l	wrist_dev_l
      3.05000000	     -0.15863179	      3.96305803	     -3.63213304	      0.56351011	      0.92492446	      0.30342028	     28.81565312	     -2.77950630	     -1.29687128	    -49.28287151	      1.17146416	    -10.18446664	      1.24868870	      7.94969431	      3.88055457	    -16.24388017	     11.31478783	     -0.79305368	     -4.42981003	     -2.87980318	     -4.75781594	     -7.19511946	    -17.02869388	      9.81752509	     22.74692513	     86.51662706	      0.00000000	      0.00000000	     -2.98030247	    -18.48448772	      8.48375769	     31.03029835	     86.51662706	      0.00000000	      0.00000000
      3.06000000	      0.00176093	      3.89286353	     -3.48273674	      0.57572040	      0.92452520	      0.30443527	     29.08886674	     -2.97445095	     -1.67738857	    -45.92243034	      1.32278970	    -10.46082474	     -0.24552578	      7.83918403	      4.15071862	    -15.41925705	     11.72860131	     -0.72752760	     -4.71750415	     -2.76196977	     -5.06282915	     -7.38126747	    -16.97970029	      9.61265361	     22.37638699	     86.51662706	      0.00000000	      0.00000000	     -2.75313737	    -18.74652893	      8.06689138	     32.14266965	     86.51662706	      0.00000000	      0.00000000
      3.07000000	      0.19499752	      3.86347720	     -3.32137154	      0.58801642	      0.92390933	      0.30549910	     29.22057229	     -3.21555382	     -2.05847449	    -42.41118276	      1.46579483	    -10.38838954	     -1.77076305	      7.76022411	      4.46321878	    -14.60157498	     12.11352817	     -0.66955210	     -5.03392804	     -2.69715737	     -5.35305113	     -7.55740486	    -16.91982316	      9.44235001	     22.00798825	     86.51662706	      0.00000000	      0.00000000	     -2.53169299	    -19.00224526	      7.66252590	     33.22952925	     86.51662706	      0.00000000	      0.00000000
      3.08000000	      0.41436151	      3.86586961	     -3.14292472	      0.60039569	      0.92308651	      0.30662372	     29.21932858	     -3.49577550	     -2.45631025	    -38.78976543	      1.61363335	     -9.89728785	     -3.31268079	      7.70165382	      4.81415333	    -13.81351220	     12.46914391	     -0.61981459	     -5.36978973	     -2.67530312	     -5.63424144	     -7.72481415	    -16.85103683	      9.30685167	     21.64398994	     86.51662706	      0.00000000	      0.00000000	     -2.31640414	    -19.24764066	      7.27211949	     34.27867704	     86.51662706	      0.00000000	      0.00000000
      3.09000000	      0.65132076	      3.88802322	     -2.94588625	      0.61287577	      0.92209515	      0.30781217	     29.09851506	     -3.80238532	     -2.89025582	    -35.10706342	      1.77555641	     -8.96573137	     -4.85282227	      7.64799403	      5.19091501	    -13.08092352	     12.80121318	     -0.57244487	     -5.71359706	     -2.68192871	     -5.90997497	     -7.88386950	    -16.77595839	      9.20557720	     21.28515495	     86.51662706	      0.00000000	      0.00000000	     -2.10793140	    -19.47830468	      6.89704578	     35.27770391	     86.51662706	      0.00000000	      0.00000000
      3.10000000	      0.89665682	      3.91655851	     -2.73185227	      0.62548573	      0.92097320	      0.30906091	     28.87800230	     -4.11662467	     -3.37856529	    -31.42315543	      1.95882296	     -7.62450044	     -6.36942615	      7.58250246	      5.57464383	    -12.43079949	     13.11950077	     -0.51632223	     -6.05342065	     -2.70003053	     -6.18155549	     -8.03349049	    -16.69730980	      9.13752654	     20.93096878	     86.51662706	      0.00000000	      0.00000000	     -1.90718601	    -19.68999092	      6.53866724	     36.21492606	     86.51662706	      0.00000000	      0.00000000
      3.11000000	      1.14151441	      3.93819397	     -2.50400261	      0.63823570	      0.91973553	      0.31036810	     28.58462828	     -4.41560856	     -3.93257897	    -27.81170681	      2.16940699	     -5.95364641	     -7.83892227	      7.48957558	      5.94361427	    -11.88915075	     13.43444942	     -0.43685201	     -6.37857212	     -2.71255071	     -6.44875139	     -8.17099274	    -16.61733339	      9.10152962	     20.58014364	     86.51662706	      0.00000000	      0.00000000	     -1.71545081	    -19.87928626	      6.19833988	     37.08040073	     86.51662706	      0.00000000	      0.00000000
      3.12000000	      1.37828716	      3.94100277	     -2.26551696	      0.65110488	      0.91837882	      0.31173951	     28.25043240	     -4.67616039	     -4.55100307	    -24.36038600	      2.41139651	     -4.07234031	     -9.23803570	      7.35589013	      6.27693615	    -11.47903535	     13.75377592	     -0.31787502	     -6.68067540	     -2.70484595	     -6.71091880	     -8.29250723	    -16.53735697	      9.09636658	     20.23125376	     86.51662706	      0.00000000	      0.00000000	     -1.53467000	    -20.04408909	      5.87735125	     37.86676169	     86.51662706	      0.00000000	      0.00000000
      3.13000000	      1.60111317	      3.91528999	     -2.01835000	      0.66406603	      0.91690687	      0.31319893	     27.90896585	     -4.87929869	     -5.21651710	    -21.16774828	      2.68569306	     -2.12403437	    -10.54652673	      7.17118616	      6.55771302	    -11.21891172	     14.07993258	     -0.14343334	     -6.95387207	     -2.66647935	     -6.96801262	     -8.39394608	    -16.45767217	      9.12079456	     19.88334484	     86.51662706	      0.00000000	      0.00000000	     -1.36789808	    -20.18369850	      5.57682955	     38.56962387	     86.51662706	      0.00000000	      0.00000000
